<?xml version="1.0" encoding="utf-8"?>
<!-- Generator: Adobe Illustrator 12.0.1, SVG Export Plug-In . SVG Version: 6.00 Build 51448)  -->
<!DOCTYPE svg PUBLIC "-//W3C//DTD SVG 1.1//EN" "http://www.w3.org/Graphics/SVG/1.1/DTD/svg11.dtd" [
	<!ENTITY ns_svg "http://www.w3.org/2000/svg">
	<!ENTITY ns_xlink "http://www.w3.org/1999/xlink">
]>
<svg  version="1.1" id="Layer_1" xmlns="&ns_svg;" xmlns:xlink="&ns_xlink;" width="550" height="315" viewBox="0 0 550 315"
	 overflow="visible" enable-background="new 0 0 550 315" xml:space="preserve">
<g>
	<path fill="#FFFFFF" d="M467,33c-1.11,3.223-5.503,3.164-10,3C457.344,32.213,464.997,31.975,467,33z"/>
	<path fill="#FFFFFF" d="M436,39c2.09-0.423,2.648,0.686,4,1c-1.905,4.095-5.56,6.441-6,12c-1.16-0.839-2.681-1.319-5-1
		C432.311,47.978,435.547,44.88,436,39z"/>
	<path fill="#FFFFFF" d="M418,50c-8.287,4.91-5.732,22.24-3,28C405.024,75.348,402.447,48.292,418,50z"/>
	<path fill="#FFFFFF" d="M424,52c-5.378,4.205-5.375,17.141-5,24C413.548,71.291,414.317,51.095,424,52z"/>
	<path fill="#FFFFFF" d="M151,81c2.359,8.628,0.721,19.188,0,28c-1.714,20.949,1.621,45.479-9,57
		C141.513,142.067,147.007,107.091,151,81z"/>
	<path fill="#FFFFFF" d="M212,86c1.172,0.162,0.843,1.823,1,3c-19.361,25.972-37.145,53.521-60,76
		C164.037,130.037,188.98,108.98,212,86z"/>
	<path fill="#FFFFFF" d="M514,91c-0.409,6.643-4.918,12.658-2,17c9.662-0.671,6.917-13.75,17-14c0.521,10.854-9.462,11.205-11,20
		c5.199-0.134,6.834-3.833,13-3c1.54,7.354-6.446,5.417-10,7c-6.567,2.925-11.415,9.112-18,11c-1.553,4.219,5.553-0.219,4,4
		c-2.877,1.68-7.419,2.801-11,1c-5.355-9.312-4.976-24.357-18-26c5.034-9.375,15.198,1.001,20,4
		C510.163,111.83,502.148,91.481,514,91z M501,125c1.302-5.698,5.312-8.688,12-9C511.32,108.506,497.241,118.314,501,125z"/>
	<path fill="#FFFFFF" d="M260,98c5.26,3.406,11.202,6.132,15,11c-1.537,6.796-11.786,4.881-18,7
		C256.585,107.851,262.739,105.804,260,98z"/>
	<path d="M443,100c-14.771,4.229-32.746,5.253-41,16C405.744,104.741,425.388,100.725,443,100z"/>
	<path fill="#FFFFFF" d="M305,123c-6.854-1.812-10.939-6.393-17-9c2.312-7.688,15.367-4.633,20-10
		C311.154,106.74,304.141,115.956,305,123z"/>
	<path d="M443,112c-1.912-1.421-2.868-3.799-6-4c-4.701,0.298-5.906,4.094-8,7C425.462,106.993,445.96,100.429,443,112z"/>
	<path fill="#FFFFFF" d="M286,109c0.318,2.319-0.161,3.839-1,5c-2.396-0.605-4.562-1.438-8-1
		C277.141,108.806,281.582,108.915,286,109z"/>
	<path d="M417,118c-2.718-3.49-9.643-4.109-11,1C401.914,113.645,418.769,107.043,417,118z"/>
	<path d="M513,116c-6.688,0.312-10.698,3.302-12,9C497.241,118.314,511.32,108.506,513,116z"/>
	<path d="M449,134c-6.006,1.713-11.32,2.163-18,1c-1.123-7.94-0.739-14.705,4-19C445.062,116.603,447.287,125.046,449,134z M433,133
		c6.144,1.811,2.109-6.557,9-4c-1.887-3.976-4.855-2.994-3-9c-1.891,0.224-2.206-1.127-4-1C432.86,122.193,432.796,127.463,433,133z
		"/>
	<path fill="#FFFFFF" d="M324,186c-4.872-0.872-6.633,1.367-10,2c2.473,2.43,0.93,6.71,0,11c4.52,1.436,7.773-0.654,12,2
		c1.246,21.128-3.452,39.898-15,52c-11.193,11.73-41.175,24.036-56,6c3.999,0.332,5.551-1.782,10-1c0-2.667,0-5.333,0-8
		c-3.882-3.672-17.065-2.583-20,1c-15.47-13.171-0.397-35.336-3-54c-1.289-9.242-9.378-19.066-10-30
		c-0.665-11.677,1.583-20.895,10-29c4.413-0.413,7.729,0.271,10,2c0.047-5.047-3.441-6.559-9-6
		C278.062,96.365,328.137,138.579,324,186z M266,139c4.238-5.769,15.044-6.253,19,0C285.762,127.531,263.272,131.965,266,139z
		 M271,147c-1.891,0.224-2.207-1.127-4-1c1.744,4.521,0.675,4.176-2,5c4.529,2.471,3.589,10.411,5,16c4.245-2.32,7.665,0.566,13,0
		c5.369-8.861-1.188-19.989-5-26c0.007,5.787-4.017-2.836-5,1c2.448,0.111,0.212,3.306-1,3c-0.111-0.795-3.306-3.031-3-1
		C270.406,144.261,270.14,146.193,271,147z M240,145c-0.483,3.15,3.069,2.264,2,6c-1.78,0.598-4.153-2.931-5,0
		c2.786,1.088,1.645,5.522-1,3c2.445,5.889,6.268,10.398,6,19c5.323-1.011,10.162-2.505,15-4c1.419-11.085-4.715-14.619-5-24
		c-3.287,2.667-3.366,0.547-7-1C245.871,149.366,241.679,145.625,240,145z M307,158c0.801-3.967,3.482-7.594,1-12
		c-3.581-2.61-7.771,1.607-11-1C300.602,149.066,305.119,152.214,307,158z M255,182c0.319,3.381,8.191,6.329,10,2
		c-2.245-1.422-6.589-0.744-7-4c1.543-0.239,4.792-3.718,2-5C259.056,178.057,255.134,178.134,255,182z M297,189
		c-2.671-5.695,3.447-11.2,7-14c-5.891,1.775-12.402,2.932-13,10C292.279,186.454,295.848,190.729,297,189z M260,212
		c13.27,1.264,14.636-14.689,16-22c-2.723,4.169-11.394-4.042-14,3c-0.683-2.984-3.981-3.352-8-3
		C256.885,196.448,254.31,208.357,260,212z M303,231c0.553-6.114,7.188-6.146,6-14c-2.779-1.258-8.396-4.886-10-4
		C304.627,216.171,301.448,225.886,303,231z M258,239c3.442-5.891,10.096-8.57,18-10c-4.37-0.963-7.043-3.624-13-3
		C261.188,229.546,257.014,235.98,258,239z M287,259c1.398-3.602,7.973-2.027,10-5c1.126-6.459-3.708-6.959-6-10
		C293.132,251.82,286.082,255.719,287,259z"/>
	<path fill="#FFFFFF" d="M435,119c1.794-0.127,2.109,1.224,4,1c-1.855,6.006,1.113,5.024,3,9c-6.891-2.557-2.856,5.811-9,4
		C432.796,127.463,432.86,122.193,435,119z"/>
	<path d="M418,145c-5.002-0.636-7.585-3.296-11-3c-2.188-9.324-0.89-20.054,6-20C420.722,122.061,424.335,138.229,418,145z M408,139
		c2.487-0.154,3.096,1.571,5,2c-1.631-5.297,3.023-4.31,5-6c-3.397-1.726-4.428-3.598-3-8C408.062,122.743,407.245,132.325,408,139z
		"/>
	<path fill="#FFFFFF" d="M415,127c-1.428,4.402-0.397,6.274,3,8c-1.977,1.69-6.631,0.703-5,6c-1.904-0.429-2.513-2.154-5-2
		C407.245,132.325,408.062,122.743,415,127z"/>
	<path d="M285,139c-3.956-6.253-14.762-5.769-19,0C263.272,131.965,285.762,127.531,285,139z"/>
	<path fill="#FFFFFF" d="M46,158c4.328,0.309,6.836-9.815,8-16c11.356,3.78-2.333,17.467,1,26c9.051-0.396,7.148-16.696,18-12
		c-9.608,5.059-3.057,26.275-14,30c-0.22,3.221,1.769,4.23,1,8c-3.073,2.873-17.166,6.292-17-2c2.347-2.361,4.913,0.162,8,0
		c-11.217-10.783-21.74-22.261-21-45c8.437,1.563,4.284,15.716,9,21c7.882-0.684,15.163,4.661,15,15
		c5.103-12.412-6.529-19.907-15-19c2.087-7.931,0.555-16.941-1-26C46.984,137.694,47.586,151.065,46,158z"/>
	<path fill="#FFFFFF" d="M502,138c-3.146,17.522-15.959,30.705-34,30c-0.94-6.193,6.195-4.621,9-6c8.768-4.312,16.087-10.679,20-21
		c-0.282-1.615,0.945-1.722,1-3C499.333,138,500.667,138,502,138z"/>
	<path d="M245,144c3.634,1.547,3.713,3.667,7,1c0.285,9.381,6.419,12.915,5,24c-4.838,1.495-9.677,2.989-15,4
		c0.268-8.602-3.555-13.111-6-19c2.645,2.522,3.786-1.912,1-3c0.847-2.931,3.22,0.598,5,0c1.069-3.736-2.483-2.85-2-6
		C241.679,145.625,245.871,149.366,245,144z M247,170c2.536-2.13,2.025-7.309,7-7c-6.151-0.896-6.227-4.025-4-9
		C242.883,154.154,240.371,167.172,247,170z"/>
	<path d="M436,145c2.806,11.948-13.857,17.208-19,9C417.408,145.075,426.326,144.66,436,145z M420,153
		c5.058,1.331,11.346-0.133,13-5C428.101,148.131,422.208,145.268,420,153z"/>
	<path fill="#FFFFFF" d="M433,148c-1.654,4.867-7.942,6.331-13,5C422.208,145.268,428.101,148.131,433,148z"/>
	<path fill="#FFFFFF" d="M277,151c4.671,0.068-1.171,2.286-1,4c0.785,2.215,6.189-0.19,5,4c-4.292-0.958-5.958,0.708-5,5
		c-1.333,0-2.667,0-4,0C271.148,157.148,272.733,152.733,277,151z"/>
	<path fill="#FFFFFF" d="M250,154c-2.227,4.975-2.151,8.104,4,9c-4.975-0.309-4.464,4.87-7,7
		C240.371,167.172,242.883,154.154,250,154z"/>
	<path fill="#FFFFFF" d="M134,163c2.933,1.732,4.644,4.689,5,9c6.798,1.132,5.968-5.365,11-6c0,1.667,0,3.333,0,5
		c4.078-0.256,4.939-3.729,10-3c-10.254,9.188-13.678,35.219-5,49c-1.498,1.502-3.008,2.992-5,4c1.828,2.371,2.61,5.783,1,9
		c5.044,0.711,5.591-3.075,11-2c0.56,1.439,1.56,2.439,3,3c-1.225,12.465-9.549,26.273,1,36c-2.408,1.926-3.319,5.348-6,7
		c-3.135,0.468-2.819-2.516-4-4c-4.005,1.995-7.995,4.005-12,6c-0.893,3.816,1.633,6.383,0,8c-5.003,2.029-12.709,0.732-18,0
		c-0.725-3.059,1.725-2.941,1-6c-11.728,10.188-39.131,6.807-41-10c-2.964,1.453,1.317,3.9,0,7c-35.816-6.236-17.108-63.543,8-67
		c1.58,7.913-6.259,6.408-7,12c0.252,9.855,17.118,18.364,24,9c0.758-6.091-3.043-7.623-9-7c-0.364,4.029,5.785,1.549,5,6
		c-7.77,2.581-16.685-1.844-17-10c4.909-3.484,12.857-0.909,16,3c0.771-7.104-9.003-3.663-10-9c6.566-1.232,7.803,2.863,11,5
		c5.649-3.671,7.802-12.781,6-21C126.454,192.014,135.647,178.792,134,163z M117,210c2.603,6.396,6.624,11.376,14,13
		C148.913,206.855,125.84,188.282,117,210z M116,239c-15.15,3.297-27.687-4.176-36-11c4.219,5.114,7.049,11.618,7,21
		c10.332,9.73,24.515-0.775,32-6c2.554,2.377,13.009,3.797,14-1c-6.68,1.732-14.364-5.816-12-13
		C118.21,231.21,117.344,235.344,116,239z M108,253c-8.783,4.632-19.976,6.639-26-2C81.798,265.889,104.514,261.65,108,253z"/>
	<path fill="#FFFFFF" d="M441,171c5.451,2.141-3.196,10.789-7,7c-0.127-1.794,1.225-2.109,1-4
		C439.072,176.548,439.659,175.371,441,171z"/>
	<path d="M461,175c-2.979-0.404-12.901,0.969-11-1C451.651,173.078,461.007,171.137,461,175z"/>
	<path d="M260,175c2.792,1.282-0.457,4.761-2,5c0.411,3.256,4.755,2.578,7,4c-1.809,4.329-9.681,1.381-10-2
		C255.134,178.134,259.056,178.057,260,175z"/>
	<path fill="#FFFFFF" d="M407,177c0.891,0.443,1.789,0.878,2,2c-10.834,12.121-7.601,19.43,3,30
		C390.379,209.303,392.671,183.059,407,177z"/>
	<path d="M429,178c-2.232,2.768-5.575,4.425-10,5C421.787,180.787,424.233,178.232,429,178z"/>
	<path d="M445,179c4.532,5.082-4.863,12.072-14,10c0.483-3.148-3.069-2.264-2-6C434.302,188.346,442.193,184.41,445,179z"/>
	<path d="M254,190c4.019-0.352,7.317,0.016,8,3c2.606-7.042,11.277,1.169,14-3c-1.364,7.311-2.73,23.264-16,22
		C254.31,208.357,256.885,196.448,254,190z M258,204c6.246,3.02,11.101-1.598,12-7c-3.77,0.787-8.47,1.75-12,0
		C258,199.333,258,201.667,258,204z"/>
	<path fill="#FFFFFF" d="M346,207c-7.361-6.415-15.885-16.146-29-11c-0.132-2.465-0.15-4.818,1-6
		C332.445,190.555,343.841,194.159,346,207z"/>
	<path fill="#FFFFFF" d="M258,197c3.53,1.75,8.23,0.787,12,0c-0.899,5.402-5.754,10.02-12,7C258,201.667,258,199.333,258,197z"/>
	<path fill="#FFFFFF" d="M109,199c-2.166,3.645-5.488,4.443-2,9c-2.615-0.282-4.301,0.365-4,3c-1.182-1.15-3.535-1.132-6-1
		C96.287,202.104,102.266,196.184,109,199z"/>
	<path d="M131,223c-7.376-1.624-11.397-6.604-14-13C125.84,188.282,148.913,206.855,131,223z M119,212c1.837,1.497,2.493,4.174,5,5
		c-0.698-3.698,1.582-4.418,5-4c-2.731-5.714,1.988-4.732,3-9C126.463,198.673,121.311,207.793,119,212z"/>
	<path fill="#FFFFFF" d="M57,201c-2.361,8.518,2.778,17.773,10,20c-5.723,10.439-18.894-7.023-18-19
		C50.454,200.454,54.119,201.119,57,201z"/>
	<path fill="#FFFFFF" d="M132,204c-1.012,4.268-5.731,3.286-3,9c-3.418-0.418-5.698,0.302-5,4c-2.507-0.826-3.163-3.503-5-5
		C121.311,207.793,126.463,198.673,132,204z"/>
	<path fill="#FFFFFF" d="M352,209c-0.938,4.729-7.531,3.803-11,6C340.971,209.667,347.416,206.501,352,209z"/>
	<path fill="#FFFFFF" d="M415,212c0.544,1.325,4.565,6.877,0,7c12.122,13.111-19.379,28.136-25,12c3.275-4.193,8.571-0.449,11,2
		c2.756-5.911,4.329-13.004,12-14c-2.938-3.415-8.856,2.455-11,0C400.22,210.555,408.377,212.044,415,212z"/>
	<path fill="#FFFFFF" d="M354,214c0.443,3.764-1.586,7.188,2,11c-4.449,3.584-11.131,1.521-13-3c0.798-1.868,1.671-3.662,2-6
		C348.414,215.747,349.805,213.473,354,214z"/>
	<path fill="#FFFFFF" d="M178,221c0,3.333,0,6.667,0,10c-2.333,0-4.667,0-7,0c1.692-8.783-12.31-6.371-16-4
		c-2.251-0.415,0.15-5.482-3-5C157.192,217.839,172.261,215.734,178,221z"/>
	<path fill="#FFFFFF" d="M400,223c-0.521,1.479-1.479,2.521-2,4C394.619,226.507,396.061,221.771,400,223z"/>
	<path fill="#FFFFFF" d="M269,228c-1.506,1.419-4.314,3.701-6,2C263.553,227.629,266.867,225.852,269,228z"/>
	<path fill="#FFFFFF" d="M360,227c-0.826,2.826,1.409,2.591,1,5c-9.833-0.833-16.66,1.34-25,2
		C337.585,220.104,352.043,235.589,360,227z"/>
	<path fill="#FFFFFF" d="M468,232c5.801,12.866,10.978,26.355,20,36c12.265,1.834,13.691-12.177,22-11
		c-3.622,7.904-13.667,18.438-21,18C479.613,274.439,467.369,249.443,468,232z"/>
	<path fill="#FFFFFF" d="M181,234c-3.766,6.962,3.872,6.889,2,17c3.167-0.499,4.087-3.246,5-6c3.817-0.484,6.383,0.284,8,2
		c1.451,19.247-39.068,19.18-31,0c1.38-3.281,5.986-4.355,10-7c-2.002-3.229-6.241,2.73-8,0
		C167.191,233.959,175.651,231.636,181,234z"/>
	<path fill="#FFFFFF" d="M230,233c2.694,3.639,2.88,9.786,4,15c-4.9,3.527-15.253,4.018-15-5c1.566,2.434,3.98,4.02,8,4
		c-0.276-4.057-3.18-5.486-2-11C226.184,234.518,228.777,234.443,230,233z"/>
	<path fill="#FFFFFF" d="M361,235c2.048,3.945,1.934,6.552-1,9c-3.869,0.869-3.559-2.441-6-3c-1.354,3.312-3.584,5.749-8,6
		c-1.117-1.55-3.251-2.083-3-5c-1.417,3.818-6.05,6.661-11,4C332.5,233.166,348.579,235.912,361,235z"/>
	<path d="M460,235c-1.724,5.379-10.779,0.58-16,4C447.264,235.598,452.711,234.378,460,235z"/>
	<path fill="#FFFFFF" d="M527,238c9.029-4.014,10.801,7.854,12,15C531.803,251.197,534.035,239.965,527,238z"/>
	<path fill="#FFFFFF" d="M89,238c5.845,2.822,11.83,5.504,21,5C105.795,249.161,87.919,248.617,89,238z"/>
	<path fill="#FFFFFF" d="M432,238c2.306-0.307,1.111,2.889,3,3c-8.283,6.604-17.07,12.859-23,23c-3.085,5.275-3.126,14.055-10,17
		C405.529,260.195,418.938,249.271,432,238z"/>
	<path fill="#FFFFFF" d="M524,259c-4.576,3.113-2.089-11.535-7-14c7.833-17.648,22.988,13.062,25,25
		c2.459,14.586-20.076,20.746-23,6C517.749,269.689,522.518,264.891,524,259z"/>
	<path fill="#FFFFFF" d="M362,246c-1.221,11.092-20.682,13.078-27,5C344.195,247.113,350.796,247.38,362,246z"/>
	<path fill="#FFFFFF" d="M510,248c5.501-0.184,10.55,13.384,3,14c2.484-4.578-0.638-8.367-5-9
		C509.02,251.688,508.98,249.312,510,248z"/>
	<path d="M82,251c6.024,8.639,17.217,6.632,26,2C104.514,261.65,81.798,265.889,82,251z"/>
	<path fill="#FFFFFF" d="M263,253c1.045,5.712-7.435,1.898-11,3c-11.726,2.414-15.322,16.688-16,27
		C227.932,265.191,245.826,245.566,263,253z"/>
	<path fill="#FFFFFF" d="M335,274c-1.012,3.322-7.277,1.389-9,4c4.236,8.564,8.355,23.011-3,27c-0.281-5.264,1.057-5.93,0-10
		c-1.372-3.294-5.291-4.042-9-5c0.37-6.37-1.927-10.073-8-10C307.896,267.457,324.954,271.417,335,274z"/>
	<path fill="#FFFFFF" d="M71,277c-5.868,1.799-7.883,7.45-10,13c-3.146,0.479-3.909-1.424-6-2C55.25,279.666,66.869,266.093,71,277z
		"/>
	<path fill="#FFFFFF" d="M154,273c1.48,5.703,6.616,12.468,7,16c-8.186,2.986-11.68-5.936-15-11
		C147.813,275.479,152.187,275.521,154,273z"/>
	<path fill="#FFFFFF" d="M207,275c9.362,6.68,23.075,14.4,35,10c5.793,9.451-5.038,15.141-10,20c-4.021,0.582,0.497-2.96-1-6
		C215.771,300.256,203.885,294.791,207,275z"/>
	<path fill="#FFFFFF" d="M390,291c5.2,0.866,4.168-4.498,6-7c6.027,0.641,13.572-0.239,12,8c-4.981-0.354-7.32-3.346-13-3
		c2.208,3.125,7.869,2.798,11,5c1.348,3.02,1.348,7.98,0,11c-10,0-20,0-30,0c-9.275-6.425-11.954-34.65,9-30
		C388.668,278.332,390.932,283.068,390,291z"/>
	<path fill="#FFFFFF" d="M46,298c3.994,0.327,2.11-5.225,4-7c5.365,0.969,13.141-0.475,13,6c-3.592,2.613-8.906,0.037-12-1
		c0.326,5.341,7.775,3.559,11,6c-3.095,8.572-21.456,1.878-31,4c-0.162-1.172-1.823-0.844-3-1c-4.148-6.264-10.146-10.954-8-20
		C23.637,269.672,52.747,276.477,46,298z"/>
	<path fill="#FFFFFF" d="M171,288c0.859,6.777-7.585,8.734-12,7C162.388,292.469,165.582,285.262,171,288z"/>
	<path fill="#FFFFFF" d="M175,290c4.784,1.136,4.864,11.456,3,16c-12.333,0-24.667,0-37,0c-1.075-13.422,19.513-9.729,23-3
		c1.877-1.907-0.593-1.811,0-5C169.849,297.516,172.271,293.604,175,290z"/>
	<path d="M460,0c1.333,0,2.667,0,4,0c0,0.333,0,0.667,0,1c6.79,0.21,9.814,4.186,10,11c9.043,0.042,12.064,7.401,10,14
		c-1.153,3.685-6.762,2.409-9,6c-3.097,4.967,2.438,7.869-2,10c-9.273,4.022-17.824,0.867-26,6c-5.957,3.74-8.146,13.616-20,7
		c-4.257,2.621-6.842,10.398-4,17c42.874,1.146,43.833,49.475,46,88c12.388-3.069,24.522-10.837,25-23
		c0.362-9.241-9.068-13.101-9-23c-4.156-1.177-8.188-2.478-9-7c4.947-11.81,18.61-4.463,24,2c6.29-5.377,2.46-20.874,13-22
		c7.734,3.043,2.043,13.146,0,18c8.475-2.192,5.688-15.646,18-14c7.936,7.833-8.393,15.085-5,18c4.688-0.022,10.21-0.876,10,4
		c-3.241,9.437-12.784,5.625-19,10c-6.715,4.726-8.008,14.477-12,24c-6.112,14.579-17.777,22.048-35,26
		c2.255,15.744,0.271,34.585-1,50c6.36,14.307,13.122,28.211,21,41c14.644-3.082,22.738-38.143,44-31c7.167,2.407,9.664,16.863,7,25
		c2.609,6.391,6.043,11.957,5,22c-8.107,16.02-39.323,11.064-30-14c-15.013-0.025-16.31,18.044-31,14
		c-8.787-2.419-9.023-16.572-16-23c-1.058,7.941-0.787,17.213-8,19c-13.529-4.137-16.715-18.619-24-29
		c-11.077,7.227-26.771,18.572-27,34c-0.056,3.745,2.436,5.861,3,9c0.369,2.055-1.987,2.174-2,4c-0.013,1.746,4.46,6.96,2,11
		c45.666,0,91.334,0,137,0c0,3.333,0,6.667,0,10c-183.333,0-366.667,0-550,0c0-3,0-6,0-9c4.398-0.831,10.366-1.093,20-1
		c-19.851-21.628,21.404-51.229,30-18c1.867-8.8,7.841-13.492,13-19c-5.541-9.958-6.365-27.193-1-38
		c-8.528-5.473-17.171-10.829-16-26c-1.333-3.334-5.039-4.294-6-8c0.721-17.075-20.219-25.506-12-50c3.14-2.64,6.935,0.47,9,2
		c-0.945-4.667-3.438-10.452,0-14c8.771-1.104,9.16,6.173,13,10c1.892-1.442,0.228-6.438,4-6c11.302,1.819,7.22,15.513,4,23
		c1.401-3.619,13.651-16.536,19-5c-1.046,4.621-5.271,6.062-7,10c4.011,12.493-4.761,15.438-7,22c-1.378,4.039,0.994,9.924-4,13
		c-0.181,8.516,4.69,11.977,10,15c9.566-3.102,13.299-12.034,25-13c1.646-2.688,3.136-5.531,5-8c22.999-0.335,29.931-16.736,32-38
		c1.667,0,3.333,0,5,0c2.555-33.445,9.697-62.303,16-92c5.704,3.296,3.515,14.485,4,23c1.667-1.333,1.553-4.447,3-6
		c4.491,3.843,2.61,14.056,3,22c9.386-7.953,16.207-32.455,28-38c-0.721,20.613-9.986,32.681-14,50c11.702-11.3,24.224-30.441,44-37
		c-4.65,18.016-17.166,28.167-25,43c4.23-1.77,9.636-2.364,15-3c-14.319,16.348-34.594,26.739-48,44c-0.265,3.266,3.88,2.12,4,5
		c-7.185,10.33-13.845,30.109-8,47c8.547-2.062,21.018-1.602,25,4c-1.514,10.357,6.102,13.546,2,22c28.917,0.784,9.702,29.536-11,26
		c-4.184,4.482-5.558,11.775-10,16c12.932,0.896,25.003,7.443,21,22c11.177,0.504,34.469,4.474,41-3
		c-18.337,3.943-29.335-14.417-22-33c6.855,3.575,14.508,11.359,23,10c2.421-10.246,5.914-19.42,12-26
		c-19.863,7.113-31.628-9.146-16-22c-19.414-10.507-7.07-38.354,9-44c-14.473-25.842-2.032-60.461,21-69
		c1.354-8.646,3.911-16.089,6-24c6.794,3.206,13.757,6.243,18,12c4.122-5.654,8.38,3.234,11,3c1.861-0.167,5.213-5.036,8-6
		c5.799-2.005,10.748-0.27,16-1c-0.449,5.66-1.721,17.958-5,24c10.996,16.337,23.952,30.715,22,60c12.055,5.945,22.447,13.553,27,27
		c1.413,1.921,4.857,1.811,7,3c0.739,18.969,9.54,48.676-22,44c-13.835-9.921-13.941-26.589-1-36c-1.156-5.365-2.893-11.382-1-17
		c-1.251-4.415-5.941-5.393-9-8c5.682,41.857-14.874,64.758-43,76c0.02,7.98,5.716,10.284,13,11c2.371-17.439,22.198-23.378,38-14
		c1.255,5.922-2.609,6.725-7,7c5.748,8.421,6.078,19.82-2,26c13.333,0,26.667,0,40,0c-7.062-6.096-9.41-31.949,5-35
		c12.802-1.802,18.958,3.042,22,11c7.855-19.479,18.104-36.562,35-47c-6.131-15.536-13.768-29.566-19-46
		c-5.287-0.287-4.799,5.201-8,7c7.927,3.74,10.993,12.34,17,18c0.022,9.782,3.348,12.637,1,19c-8.556,23.189-52.391,2.607-25-11
		c-0.712-6.046,1.576-9.09,5-11c-18.368-7.073-8.09-30.406,4-37c-7.774-25.347-31.952-81.098,2-95c-10.951-12.757-1.528-22.607,2-38
		c6.452-2.215,9.435-7.898,11-15c3.044-0.956,4.023-3.977,9-3C429.05,3.717,450.721,8.054,460,0z M449,34
		c-3.922,1.276-3.353-2.737-2-4c-2.631,1.036-6.137,1.197-10,1c-0.679-3.654-1.396-7.271-1-12c4.178-3.938,12.938-3.771,16,1
		c0.851-4.483,3.517-7.15,8-8c4.069,2.931,8.134,5.866,12,9c-2.134,1.2-5.446,1.22-6,4c4.833-0.167,7.796-2.205,12-3
		c0.052-5.385-3.173-7.494-9-7c3.082-15.188-18.138-10.94-22-2c-2.492-0.841-5.357-1.309-9-1c-3.998,5.335-1.548,17.119-14,14
		c-2.004,2.127-3.098,8.925-1,12c-4.41,2.59-12.417,1.583-11,10c6.77-1.002,5.5-1.708,12,0c1.032-3.967,1.057-8.944,6-9
		c-2.555-0.112-1.984-3.349-2-6C435.093,25.773,443.536,39.915,449,34z M457,36c4.497,0.164,8.89,0.223,10-3
		C464.997,31.975,457.344,32.213,457,36z M429,51c2.319-0.319,3.84,0.161,5,1c0.44-5.559,4.095-7.905,6-12
		c-1.352-0.314-1.91-1.423-4-1C435.547,44.88,432.311,47.978,429,51z M415,78c-2.732-5.76-5.287-23.09,3-28
		C402.447,48.292,405.024,75.348,415,78z M419,76c-0.375-6.859-0.378-19.795,5-24C414.317,51.095,413.548,71.291,419,76z M421,78
		c-2.653,0.214-13.318,3.198-18,7c-15.639,12.703-1.914,47.57,3,65c10.599,37.594,25.096,75.073,42,105
		c3.507,6.209,7.097,15.427,15,15c0.259-32.809,7.133-86.008-1-108c4.513-6.544,0.174-23.909-1-34c-2.391-0.609-7.256,1.255-8-1
		c1.776-3.456,7.327,2.658,7-2C455.991,102.151,446.044,75.977,421,78z M152,160c11.632-25.702,25.405-54.594,32-82
		C170.823,100.747,149.421,127.989,152,160z M142,166c10.621-11.521,7.286-36.051,9-57c0.721-8.812,2.359-19.372,0-28
		C147.007,107.091,141.513,142.067,142,166z M153,165c22.855-22.479,40.639-50.028,60-76c-0.157-1.177,0.172-2.838-1-3
		C188.98,108.98,164.037,130.037,153,165z M498,112c-4.802-2.999-14.966-13.375-20-4c13.024,1.643,12.645,16.688,18,26
		c3.581,1.801,8.123,0.68,11-1c1.553-4.219-5.553,0.219-4-4c6.585-1.888,11.433-8.075,18-11c3.554-1.583,11.54,0.354,10-7
		c-6.166-0.833-7.801,2.866-13,3c1.538-8.795,11.521-9.146,11-20c-10.083,0.25-7.338,13.329-17,14c-2.918-4.342,1.591-10.357,2-17
		C502.148,91.481,510.163,111.83,498,112z M257,116c6.214-2.119,16.463-0.204,18-7c-3.798-4.868-9.74-7.594-15-11
		C262.739,105.804,256.585,107.851,257,116z M308,104c-4.633,5.367-17.688,2.312-20,10c6.061,2.607,10.146,7.188,17,9
		C304.141,115.956,311.154,106.74,308,104z M277,113c3.438-0.438,5.604,0.395,8,1c0.839-1.161,1.318-2.681,1-5
		C281.582,108.915,277.141,108.806,277,113z M243,134c5.559-0.559,9.047,0.953,9,6c-2.271-1.729-5.587-2.413-10-2
		c-8.417,8.105-10.665,17.323-10,29c0.622,10.934,8.711,20.758,10,30c2.603,18.664-12.47,40.829,3,54c2.935-3.583,16.118-4.672,20-1
		c0,2.667,0,5.333,0,8c-4.449-0.782-6.001,1.332-10,1c14.825,18.036,44.807,5.73,56-6c11.548-12.102,16.246-30.872,15-52
		c-4.227-2.654-7.48-0.564-12-2c0.93-4.29,2.473-8.57,0-11c3.367-0.633,5.128-2.872,10-2C328.137,138.579,278.062,96.365,243,134z
		 M38,138c1.555,9.059,3.087,18.069,1,26c8.471-0.907,20.103,6.588,15,19c0.163-10.339-7.118-15.684-15-15
		c-4.716-5.284-0.563-19.437-9-21c-0.74,22.739,9.783,34.217,21,45c-3.087,0.162-5.653-2.361-8,0c-0.166,8.292,13.927,4.873,17,2
		c0.769-3.77-1.22-4.779-1-8c10.943-3.725,4.392-24.941,14-30c-10.852-4.696-8.949,11.604-18,12c-3.333-8.533,10.356-22.22-1-26
		c-1.164,6.185-3.672,16.309-8,16C47.586,151.065,46.984,137.694,38,138z M498,138c-0.055,1.278-1.282,1.385-1,3
		c-3.913,10.321-11.232,16.688-20,21c-2.805,1.379-9.94-0.193-9,6c18.041,0.705,30.854-12.478,34-30
		C500.667,138,499.333,138,498,138z M113,196c1.802,8.219-0.351,17.329-6,21c-3.197-2.137-4.434-6.232-11-5
		c0.997,5.337,10.771,1.896,10,9c-3.143-3.909-11.091-6.484-16-3c0.315,8.156,9.23,12.581,17,10c0.785-4.451-5.364-1.971-5-6
		c5.957-0.623,9.758,0.909,9,7c-6.882,9.364-23.748,0.855-24-9c0.741-5.592,8.58-4.087,7-12c-25.108,3.457-43.816,60.764-8,67
		c1.317-3.1-2.964-5.547,0-7c1.869,16.807,29.272,20.188,41,10c0.725,3.059-1.725,2.941-1,6c5.291,0.732,12.997,2.029,18,0
		c1.633-1.617-0.893-4.184,0-8c4.005-1.995,7.995-4.005,12-6c1.181,1.484,0.865,4.468,4,4c2.681-1.652,3.592-5.074,6-7
		c-10.549-9.727-2.225-23.535-1-36c-1.44-0.561-2.44-1.561-3-3c-5.409-1.075-5.956,2.711-11,2c1.61-3.217,0.828-6.629-1-9
		c1.992-1.008,3.502-2.498,5-4c-8.678-13.781-5.254-39.812,5-49c-5.061-0.729-5.922,2.744-10,3c0-1.667,0-3.333,0-5
		c-5.032,0.635-4.202,7.132-11,6c-0.356-4.311-2.067-7.268-5-9C135.647,178.792,126.454,192.014,113,196z M412,209
		c-10.601-10.57-13.834-17.879-3-30c-0.211-1.122-1.109-1.557-2-2C392.671,183.059,390.379,209.303,412,209z M318,190
		c-1.15,1.182-1.132,3.535-1,6c13.115-5.146,21.639,4.585,29,11C343.841,194.159,332.445,190.555,318,190z M232,224
		c-0.427-11.094,5.456-15.878,5-27C225.04,196.68,215.235,225.079,232,224z M97,210c2.465-0.132,4.818-0.15,6,1
		c-0.301-2.635,1.385-3.282,4-3c-3.488-4.557-0.166-5.355,2-9C102.266,196.184,96.287,202.104,97,210z M49,202
		c-0.894,11.977,12.277,29.439,18,19c-7.222-2.227-12.361-11.482-10-20C54.119,201.119,50.454,200.454,49,202z M341,215
		c3.469-2.197,10.062-1.271,11-6C347.416,206.501,340.971,209.667,341,215z M402,219c2.144,2.455,8.062-3.415,11,0
		c-7.671,0.996-9.244,8.089-12,14c-2.429-2.449-7.725-6.193-11-2c5.621,16.136,37.122,1.111,25-12c4.565-0.123,0.544-5.675,0-7
		C408.377,212.044,400.22,210.555,402,219z M345,216c-0.329,2.338-1.202,4.132-2,6c1.869,4.521,8.551,6.584,13,3
		c-3.586-3.812-1.557-7.236-2-11C349.805,213.473,348.414,215.747,345,216z M152,222c3.15-0.482,0.749,4.585,3,5
		c3.69-2.371,17.692-4.783,16,4c2.333,0,4.667,0,7,0c0-3.333,0-6.667,0-10C172.261,215.734,157.192,217.839,152,222z M398,227
		c0.521-1.479,1.479-2.521,2-4C396.061,221.771,394.619,226.507,398,227z M336,234c8.34-0.66,15.167-2.833,25-2
		c0.409-2.409-1.826-2.174-1-5C352.043,235.589,337.585,220.104,336,234z M489,275c7.333,0.438,17.378-10.096,21-18
		c-8.309-1.177-9.735,12.834-22,11c-9.022-9.645-14.199-23.134-20-36C467.369,249.443,479.613,274.439,489,275z M167,240
		c1.759,2.73,5.998-3.229,8,0c-4.014,2.645-8.62,3.719-10,7c-8.068,19.18,32.451,19.247,31,0c-1.617-1.716-4.183-2.484-8-2
		c-0.913,2.754-1.833,5.501-5,6c1.872-10.111-5.766-10.038-2-17C175.651,231.636,167.191,233.959,167,240z M225,236
		c-1.18,5.514,1.724,6.943,2,11c-4.02,0.02-6.434-1.566-8-4c-0.253,9.018,10.1,8.527,15,5c-1.12-5.214-1.306-11.361-4-15
		C228.777,234.443,226.184,234.518,225,236z M332,246c4.95,2.661,9.583-0.182,11-4c-0.251,2.917,1.883,3.45,3,5
		c4.416-0.251,6.646-2.688,8-6c2.441,0.559,2.131,3.869,6,3c2.934-2.448,3.048-5.055,1-9C348.579,235.912,332.5,233.166,332,246z
		 M539,253c-1.199-7.146-2.971-19.014-12-15C534.035,239.965,531.803,251.197,539,253z M402,281c6.874-2.945,6.915-11.725,10-17
		c5.93-10.141,14.717-16.396,23-23c-1.889-0.111-0.694-3.307-3-3C418.938,249.271,405.529,260.195,402,281z M519,276
		c2.924,14.746,25.459,8.586,23-6c-2.012-11.938-17.167-42.648-25-25c4.911,2.465,2.424,17.113,7,14
		C522.518,264.891,517.749,269.689,519,276z M335,251c6.318,8.078,25.779,6.092,27-5C350.796,247.38,344.195,247.113,335,251z
		 M508,253c4.362,0.633,7.484,4.422,5,9c7.55-0.616,2.501-14.184-3-14C508.98,249.312,509.02,251.688,508,253z M236,283
		c0.678-10.312,4.274-24.586,16-27c3.565-1.102,12.045,2.712,11-3C245.826,245.566,227.932,265.191,236,283z M246,263
		c-10.164,9.18,3.813,22.314,2,31c-1.207,5.777-11.46,7.068-9,11c20.277,0.339,51.742-0.227,78,0c5.025-17.527-13.404-9.827-25-12
		c-9.895-1.854-15.279-8.57-17-18C261.422,274.911,256.279,266.389,246,263z M306,280c6.073-0.073,8.37,3.63,8,10
		c3.709,0.958,7.628,1.706,9,5c1.057,4.07-0.281,4.736,0,10c11.355-3.989,7.236-18.436,3-27c1.723-2.611,7.988-0.678,9-4
		C324.954,271.417,307.896,267.457,306,280z M55,288c2.091,0.576,2.854,2.479,6,2c2.117-5.55,4.132-11.201,10-13
		C66.869,266.093,55.25,279.666,55,288z M146,278c3.32,5.064,6.814,13.986,15,11c-0.384-3.532-5.52-10.297-7-16
		C152.187,275.521,147.813,275.479,146,278z M231,299c1.497,3.04-3.021,6.582,1,6c4.962-4.859,15.793-10.549,10-20
		c-11.925,4.4-25.638-3.32-35-10C203.885,294.791,215.771,300.256,231,299z M385,275c-20.954-4.65-18.275,23.575-9,30
		c10,0,20,0,30,0c1.348-3.02,1.348-7.98,0-11c-3.131-2.202-8.792-1.875-11-5c5.68-0.346,8.019,2.646,13,3
		c1.572-8.239-5.973-7.359-12-8c-1.832,2.502-0.8,7.866-6,7C390.932,283.068,388.668,278.332,385,275z M20,285
		c-2.146,9.046,3.852,13.736,8,20c1.177,0.156,2.838-0.172,3,1c9.544-2.122,27.905,4.572,31-4c-3.225-2.441-10.674-0.659-11-6
		c3.094,1.037,8.408,3.613,12,1c0.141-6.475-7.635-5.031-13-6c-1.89,1.775-0.006,7.327-4,7C52.747,276.477,23.637,269.672,20,285z
		 M121,287c-20.299,13.055-44.794-23.605-54,2c4.288,5.484-1.055,9.674,1,16c20.019,2.314,44.319,0.348,66,1
		c1.251-9.415,8.873-12.46,17-15C146.688,287.271,128.149,294.782,121,287z M159,295c4.415,1.734,12.859-0.223,12-7
		C165.582,285.262,162.388,292.469,159,295z M164,298c-0.593,3.189,1.877,3.093,0,5c-3.487-6.729-24.075-10.422-23,3
		c12.333,0,24.667,0,37,0c1.864-4.544,1.784-14.864-3-16C172.271,293.604,169.849,297.516,164,298z"/>
	<path fill="#FFFFFF" d="M428,33c0.016,2.651-0.555,5.888,2,6c-4.943,0.056-4.968,5.033-6,9c-6.5-1.708-5.23-1.002-12,0
		c-1.417-8.417,6.59-7.41,11-10c-2.098-3.075-1.004-9.873,1-12c12.452,3.119,10.002-8.665,14-14c3.643-0.309,6.508,0.159,9,1
		c3.862-8.94,25.082-13.188,22,2c5.827-0.494,9.052,1.615,9,7c-4.204,0.795-7.167,2.833-12,3c0.554-2.78,3.866-2.8,6-4
		c-3.866-3.134-7.931-6.069-12-9c-4.483,0.85-7.149,3.517-8,8c-3.062-4.771-11.822-4.938-16-1c-0.396,4.729,0.321,8.346,1,12
		c3.863,0.197,7.369,0.036,10-1c-1.353,1.263-1.922,5.276,2,4C443.536,39.915,435.093,25.773,428,33z"/>
	<path fill="#FFFFFF" d="M184,78c-6.595,27.406-20.368,56.298-32,82C149.421,127.989,170.823,100.747,184,78z"/>
	<path d="M269,144c-0.306-2.031,2.889,0.205,3,1c1.212,0.306,3.448-2.889,1-3c0.983-3.836,5.007,4.787,5-1
		c3.812,6.011,10.369,17.139,5,26c-5.335,0.566-8.755-2.32-13,0c-1.411-5.589-0.471-13.529-5-16c2.675-0.824,3.744-0.479,2-5
		c1.793-0.127,2.109,1.224,4,1C270.14,146.193,270.406,144.261,269,144z M272,164c1.333,0,2.667,0,4,0c-0.958-4.292,0.708-5.958,5-5
		c1.189-4.19-4.215-1.785-5-4c-0.171-1.714,5.671-3.932,1-4C272.733,152.733,271.148,157.148,272,164z"/>
	<path d="M420,169c9.312,0.37,22.096-3.704,25-13c-0.237-3.096-2.783-3.884-4-6c2.333-0.943,9.709,4.625,15,1
		c-0.149,4.184-4.484,4.183-7,6c0.89,14.217-4.149,26.732-17,24c-1.017-3.65-2.48-6.854-4-10
		C424.183,171.484,421.617,170.716,420,169z M435,174c0.225,1.891-1.127,2.206-1,4c3.804,3.789,12.451-4.859,7-7
		C439.659,175.371,439.072,176.548,435,174z"/>
	<path d="M291,185c0.598-7.068,7.109-8.225,13-10c-3.553,2.8-9.671,8.305-7,14C295.848,190.729,292.279,186.454,291,185z"/>
	<path d="M461,206c-9.115,2.219-21.15,1.516-27,7C435.381,207.622,451.103,202.889,461,206z"/>
	<path d="M299,213c1.604-0.886,7.221,2.742,10,4c1.188,7.854-5.447,7.886-6,14C301.448,225.886,304.627,216.171,299,213z"/>
	<path d="M263,226c5.957-0.624,8.63,2.037,13,3c-7.904,1.43-14.558,4.109-18,10C257.014,235.98,261.188,229.546,263,226z M263,230
		c1.686,1.701,4.494-0.581,6-2C266.867,225.852,263.553,227.629,263,230z"/>
	<path d="M121,229c-2.364,7.184,5.32,14.732,12,13c-0.991,4.797-11.446,3.377-14,1c-7.485,5.225-21.668,15.73-32,6
		c0.049-9.382-2.781-15.886-7-21c8.313,6.824,20.85,14.297,36,11C117.344,235.344,118.21,231.21,121,229z M110,243
		c-9.17,0.504-15.155-2.178-21-5C87.919,248.617,105.795,249.161,110,243z"/>
	<path d="M291,244c2.292,3.041,7.126,3.541,6,10c-2.027,2.973-8.602,1.398-10,5C286.082,255.719,293.132,251.82,291,244z"/>
	<path fill="#FFFFFF" d="M460,125c0.327,4.658-5.224-1.456-7,2c0.744,2.255,5.609,0.391,8,1c1.174,10.091,5.513,27.456,1,34
		c8.133,21.992,1.259,75.191,1,108c-7.903,0.427-11.493-8.791-15-15c-16.904-29.927-31.401-67.406-42-105
		c-4.914-17.43-18.639-52.297-3-65c4.682-3.802,15.347-6.786,18-7C446.044,75.977,455.991,102.151,460,125z M402,116
		c8.254-10.747,26.229-11.771,41-16C425.388,100.725,405.744,104.741,402,116z M429,115c2.094-2.906,3.299-6.702,8-7
		c3.132,0.201,4.088,2.579,6,4C445.96,100.429,425.462,106.993,429,115z M406,119c1.357-5.109,8.282-4.49,11-1
		C418.769,107.043,401.914,113.645,406,119z M435,116c-4.739,4.295-5.123,11.06-4,19c6.68,1.163,11.994,0.713,18-1
		C447.287,125.046,445.062,116.603,435,116z M413,122c-6.89-0.054-8.188,10.676-6,20c3.415-0.296,5.998,2.364,11,3
		C424.335,138.229,420.722,122.061,413,122z M417,154c5.143,8.208,21.806,2.948,19-9C426.326,144.66,417.408,145.075,417,154z
		 M428,171c1.52,3.146,2.983,6.35,4,10c12.851,2.732,17.89-9.783,17-24c2.516-1.817,6.851-1.816,7-6c-5.291,3.625-12.667-1.943-15-1
		c1.217,2.116,3.763,2.904,4,6c-2.904,9.296-15.688,13.37-25,13C421.617,170.716,424.183,171.484,428,171z M450,174
		c-1.901,1.969,8.021,0.596,11,1C461.007,171.137,451.651,173.078,450,174z M419,183c4.425-0.575,7.768-2.232,10-5
		C424.233,178.232,421.787,180.787,419,183z M429,183c-1.069,3.736,2.483,2.852,2,6c9.137,2.072,18.532-4.918,14-10
		C442.193,184.41,434.302,188.346,429,183z M434,213c5.85-5.484,17.885-4.781,27-7C451.103,202.889,435.381,207.622,434,213z
		 M444,239c5.221-3.42,14.276,1.379,16-4C452.711,234.378,447.264,235.598,444,239z"/>
	<path d="M297,145c3.229,2.607,7.419-1.61,11,1c2.482,4.406-0.199,8.033-1,12C305.119,152.214,300.602,149.066,297,145z"/>
</g>
</svg>
